<?xml version="1.0" encoding="UTF-8" standalone="no"?>
<!DOCTYPE svg PUBLIC "-//W3C//DTD SVG 1.1//EN" "http://www.w3.org/Graphics/SVG/1.1/DTD/svg11.dtd">
<svg version="1.1" xmlns="http://www.w3.org/2000/svg" xmlns:xlink="http://www.w3.org/1999/xlink" preserveAspectRatio="xMidYMid meet" viewBox="0 0 640 640" width="640" height="640"><defs><path d="M0 320C0 496.61 143.39 640 320 640C496.61 640 640 496.61 640 320C640 143.39 496.61 0 320 0C143.39 0 0 143.39 0 320Z" id="a5mJ2UKuD"></path><path d="M217.3 176.81L218.69 176.89L220.1 176.98L221.51 177.1L222.93 177.24L224.37 177.4L225.81 177.58L227.27 177.79L228.74 178.01L230.22 178.26L231.71 178.53L233.22 178.81L234.75 179.12L236.69 179.55L238.61 180.05L240.52 180.61L242.43 181.23L244.31 181.92L246.19 182.67L248.05 183.48L249.9 184.36L251.74 185.3L253.57 186.3L255.38 187.37L257.19 188.5L258.97 189.69L260.75 190.94L262.52 192.26L264.27 193.64L266.01 195.09L267.73 196.6L269.45 198.17L271.15 199.81L272.84 201.5L274.52 203.27L276.18 205.09L277.83 206.98L279.47 208.93L281.1 210.94L282.72 213.02L284.32 215.16L285.91 217.37L287.49 219.63L289.05 221.96L290.61 224.36L292.15 226.82L293.68 229.34L295.19 231.92L296.69 234.57L298.19 237.28L299.66 240.05L301.13 242.89L302.58 245.78L303.96 243.72L305.35 241.7L306.76 239.71L308.18 237.76L309.62 235.86L311.08 233.99L312.56 232.16L314.05 230.37L315.55 228.62L317.08 226.91L318.61 225.23L320.17 223.6L321.74 222.01L323.33 220.45L324.94 218.93L326.56 217.46L328.2 216.02L329.85 214.62L331.52 213.26L333.21 211.94L334.92 210.66L336.64 209.42L338.37 208.21L340.13 207.05L341.9 205.92L343.68 204.84L345.49 203.79L347.31 202.78L349.14 201.81L350.99 200.88L352.86 199.99L354.75 199.14L356.65 198.33L358.57 197.56L360.5 196.82L362.45 196.13L364.42 195.47L366.4 194.85L368.4 194.28L370.42 193.74L372.48 193.23L374.63 192.74L376.86 192.26L379.17 191.81L381.55 191.38L384.02 190.96L386.57 190.56L389.2 190.18L391.91 189.82L394.71 189.48L397.58 189.16L400.53 188.85L403.57 188.57L406.68 188.3L409.88 188.05L413.16 187.82L416.51 187.61L419.95 187.42L423.47 187.24L427.07 187.09L430.75 186.95L434.51 186.83L438.36 186.73L442.28 186.65L446.28 186.59L450.37 186.54L454.53 186.52L458.78 186.51L463.11 186.53L467.51 186.56L472 186.61L476.57 186.67L481.22 186.76L485.95 186.87L490.76 186.99L495.66 187.13L500.63 187.29L505.68 187.47L510.82 187.67L516.03 187.89L516.2 195.54L516.33 203.05L516.44 210.42L516.52 217.64L516.57 224.73L516.6 231.68L516.6 238.49L516.57 245.15L516.52 251.68L516.44 258.07L516.33 264.31L516.19 270.42L516.03 276.38L515.84 282.21L515.62 287.89L515.38 293.43L515.11 298.84L514.81 304.1L514.49 309.22L514.13 314.21L513.75 319.05L513.35 323.75L512.91 328.31L512.45 332.73L511.97 337.01L511.45 341.15L510.91 345.15L510.34 349.01L509.75 352.73L509.13 356.31L508.48 359.75L507.8 363.05L507.1 366.21L506.37 369.22L505.61 372.1L504.82 374.84L504.01 377.43L503.17 379.89L502.31 382.21L501.41 384.38L499.99 387.62L498.43 391L496.74 394.51L494.91 398.15L492.95 401.88L490.83 405.71L488.57 409.62L486.16 413.6L483.59 417.62L480.87 421.69L477.98 425.78L474.94 429.87L471.72 433.97L468.34 438.05L464.78 442.1L461.05 446.11L457.14 450.06L453.04 453.95L448.76 457.74L444.29 461.45L439.62 465.04L434.76 468.5L429.71 471.83L424.45 475.01L418.98 478.03L413.31 480.86L407.42 483.51L401.32 485.95L395 488.17L388.46 490.16L381.7 491.9L374.7 493.39L367.48 494.6L360.02 495.53L352.33 496.15L344.4 496.47L336.22 496.45L327.79 496.1L319.11 495.4L310.19 494.32L301.31 492.91L292.79 491.21L284.62 489.24L276.79 487L269.3 484.52L262.13 481.81L255.29 478.87L248.76 475.74L242.53 472.41L236.61 468.9L230.97 465.24L225.62 461.42L220.55 457.47L215.74 453.4L211.2 449.23L206.91 444.96L202.87 440.61L199.07 436.21L195.51 431.75L192.17 427.25L189.05 422.74L186.14 418.22L183.43 413.7L180.92 409.21L178.6 404.75L176.47 400.34L174.51 395.99L172.71 391.72L171.08 387.54L169.6 383.47L168.27 379.51L167.07 375.69L166.01 372.02L165.07 368.51L164.25 365.18L163.54 362.03L162.93 359.09L162.42 356.37L161.99 353.88L161.65 351.63L161.36 349.53L161.1 347.46L160.88 345.42L160.69 343.41L160.53 341.43L160.4 339.47L160.29 337.54L160.21 335.63L160.15 333.74L160.11 331.87L160.09 330.03L160.09 328.19L160.11 326.38L160.15 324.58L160.19 322.79L160.25 321.02L160.33 319.25L160.41 317.5L160.49 315.75L160.59 314.01L160.68 312.27L160.78 310.54L160.89 308.81L160.99 307.09L161.09 305.36L161.18 303.63L161.27 301.9L161.36 300.16L161.43 298.42L161.5 296.67L161.56 294.91L161.6 293.14L161.63 291.36L161.64 289.57L161.63 287.76L161.6 285.94L161.56 284.1L161.49 282.24L161.4 280.37L161.28 278.47L161.13 276.59L160.97 274.78L160.77 273.03L160.56 271.34L160.32 269.72L160.07 268.15L159.79 266.63L159.49 265.18L159.18 263.77L158.85 262.43L158.5 261.13L158.13 259.88L157.75 258.69L157.35 257.54L156.95 256.44L156.52 255.38L156.09 254.37L155.65 253.4L155.19 252.48L154.73 251.59L154.26 250.74L153.78 249.94L153.29 249.16L152.8 248.43L152.3 247.73L151.8 247.06L151.29 246.42L150.79 245.81L150.28 245.23L149.76 244.68L149.25 244.16L148.74 243.66L148.23 243.18L147.73 242.73L147.22 242.3L146.72 241.89L146.23 241.49L145.74 241.12L145.26 240.76L144.78 240.41L144.47 240.19L144.15 239.96L143.82 239.74L143.5 239.52L143.17 239.3L142.83 239.07L142.5 238.85L142.16 238.63L141.81 238.41L141.47 238.19L141.12 237.97L140.76 237.75L140.41 237.54L140.05 237.32L139.68 237.1L139.32 236.88L138.95 236.67L138.57 236.45L138.19 236.24L137.81 236.03L137.43 235.81L137.04 235.6L136.65 235.39L136.26 235.18L135.86 234.96L135.46 234.75L135.05 234.54L134.65 234.33L134.23 234.13L133.82 233.92L133.4 233.71L132.98 233.5L132.55 233.3L132.13 233.09L131.69 232.88L131.26 232.68L130.82 232.48L130.38 232.27L129.93 232.07L129.48 231.87L129.94 231.53L130.39 231.19L130.84 230.84L131.28 230.5L131.72 230.15L132.15 229.81L132.58 229.46L133 229.11L133.42 228.76L133.83 228.41L134.23 228.06L134.63 227.7L135.03 227.35L135.42 226.99L135.8 226.63L136.18 226.27L136.56 225.91L136.93 225.55L137.29 225.19L137.65 224.82L138.01 224.45L138.36 224.09L138.7 223.72L139.04 223.35L139.37 222.98L139.7 222.6L140.02 222.23L140.34 221.85L140.65 221.48L140.96 221.1L141.26 220.72L141.56 220.34L141.85 219.96L142.14 219.57L142.42 219.19L142.7 218.8L142.97 218.42L143.24 218.03L143.5 217.64L143.75 217.25L144.15 216.64L144.56 216.01L145 215.35L145.47 214.66L145.96 213.95L146.48 213.21L147.02 212.45L147.59 211.67L148.18 210.87L148.79 210.05L149.43 209.22L150.1 208.37L150.79 207.51L151.51 206.63L152.25 205.75L153.02 204.86L153.81 203.96L154.63 203.05L155.48 202.14L156.35 201.22L157.24 200.31L158.17 199.39L159.11 198.48L160.09 197.57L161.09 196.66L162.11 195.76L163.16 194.87L164.24 193.98L165.34 193.11L166.47 192.24L167.63 191.4L168.81 190.56L170.02 189.75L171.26 188.95L172.52 188.17L173.81 187.41L175.12 186.67L176.46 185.96L177.83 185.27L179.22 184.61L180.63 183.98L182.02 183.37L183.41 182.79L184.79 182.24L186.16 181.72L187.53 181.23L188.89 180.76L190.25 180.32L191.6 179.91L192.95 179.52L194.29 179.16L195.64 178.82L196.98 178.51L198.32 178.23L199.66 177.97L201 177.73L202.34 177.52L203.68 177.34L205.02 177.18L206.37 177.05L207.72 176.93L209.07 176.85L210.43 176.78L211.79 176.74L213.16 176.73L214.53 176.73L215.91 176.76L215.91 176.76L217.3 176.81ZM213.85 217.39L212.99 217.44L212.14 217.51L211.28 217.59L210.43 217.68L209.58 217.79L208.73 217.91L207.88 218.05L207.03 218.21L206.18 218.37L205.33 218.55L204.49 218.75L203.64 218.96L202.8 219.18L201.95 219.42L201.11 219.68L200.27 219.95L199.43 220.23L198.59 220.52L197.75 220.84L196.91 221.16L196.07 221.5L195.24 221.85L194.4 222.22L193.57 222.61L192.74 223L191.91 223.42L191.07 223.84L190.25 224.28L189.42 224.74L188.59 225.21L187.76 225.69L186.93 226.19L186.11 226.7L185.29 227.23L184.46 227.77L183.64 228.32L182.82 228.89L182 229.48L181.18 230.08L180.36 230.69L179.54 231.32L179.84 231.48L180.14 231.65L180.43 231.82L180.72 231.99L181.01 232.17L181.3 232.34L181.59 232.52L181.87 232.71L182.16 232.89L182.44 233.08L182.72 233.27L183 233.46L183.27 233.65L183.55 233.85L183.82 234.05L184.09 234.25L184.36 234.46L184.63 234.67L184.9 234.88L185.16 235.09L185.42 235.3L185.68 235.52L185.94 235.74L186.2 235.96L186.46 236.19L186.71 236.42L186.96 236.65L187.21 236.88L187.46 237.12L187.71 237.35L187.95 237.59L188.2 237.84L188.44 238.08L188.68 238.33L188.92 238.58L189.15 238.83L189.39 239.09L189.62 239.35L189.85 239.61L190.08 239.87L190.31 240.13L190.54 240.4L190.76 240.67L190.98 240.95L191.2 241.22L191.42 241.5L191.64 241.78L191.86 242.06L192.07 242.35L192.28 242.64L192.49 242.93L192.7 243.22L192.91 243.52L193.11 243.81L193.32 244.12L193.52 244.42L193.72 244.72L193.92 245.03L194.11 245.34L194.31 245.66L194.5 245.97L194.69 246.29L194.88 246.61L195.07 246.94L195.26 247.26L195.44 247.59L195.62 247.92L195.81 248.26L195.98 248.59L196.16 248.93L196.34 249.27L196.51 249.61L196.68 249.96L196.85 250.31L197.02 250.66L197.19 251.01L197.36 251.37L197.52 251.73L197.68 252.09L197.84 252.45L197.95 252.72L198.05 253.01L198.15 253.31L198.25 253.62L198.34 253.96L198.43 254.31L198.52 254.67L198.61 255.05L198.69 255.45L198.78 255.87L198.86 256.3L198.93 256.74L199.01 257.21L199.08 257.69L199.15 258.18L199.22 258.69L199.28 259.22L199.34 259.77L199.4 260.33L199.46 260.91L199.51 261.5L199.56 262.11L199.61 262.73L199.66 263.38L199.7 264.04L199.74 264.71L199.78 265.4L199.82 266.11L199.85 266.83L199.88 267.57L199.91 268.33L199.93 269.1L199.96 269.89L199.98 270.69L200 271.52L200.01 272.35L200.02 273.21L200.03 274.08L200.04 274.96L200.05 275.87L200.05 277.22L200.04 278.55L200.03 279.86L200.01 281.14L199.99 282.4L199.96 283.65L199.92 284.88L199.88 286.09L199.84 287.29L199.79 288.47L199.73 289.65L199.67 290.81L199.61 291.97L199.55 293.11L199.48 294.26L199.42 295.39L199.35 296.53L199.28 297.67L199.2 298.8L199.13 299.94L199.06 301.08L198.99 302.22L198.92 303.38L198.84 304.54L198.78 305.7L198.71 306.88L198.64 308.07L198.58 309.28L198.52 310.5L198.46 311.73L198.41 312.99L198.36 314.26L198.32 315.56L198.28 316.87L198.24 318.21L198.21 319.58L198.19 320.97L198.17 322.39L198.16 323.84L198.16 325.33L198.18 326.9L198.26 328.61L198.4 330.46L198.59 332.43L198.84 334.52L199.14 336.73L199.51 339.05L199.93 341.46L200.41 343.97L200.95 346.57L201.56 349.24L202.22 351.99L202.95 354.8L203.74 357.67L204.6 360.59L205.52 363.55L206.5 366.55L207.56 369.59L208.68 372.64L209.87 375.72L211.12 378.8L212.45 381.89L213.85 384.97L215.32 388.04L216.86 391.09L218.47 394.12L220.16 397.12L221.92 400.08L223.76 402.99L225.67 405.85L227.66 408.65L229.73 411.38L231.87 414.04L234.09 416.62L236.4 419.12L238.78 421.51L241.25 423.81L243.8 426L246.43 428.08L249.14 430.03L251.89 431.9L254.61 433.72L257.32 435.49L260 437.21L262.68 438.89L265.34 440.52L267.99 442.09L270.64 443.61L273.29 445.08L275.93 446.49L278.58 447.85L281.23 449.16L283.89 450.4L286.56 451.59L289.24 452.72L291.94 453.79L294.66 454.79L297.4 455.74L300.17 456.62L302.96 457.44L305.78 458.19L308.63 458.88L311.52 459.5L314.45 460.05L317.41 460.54L320.42 460.95L323.47 461.29L326.58 461.57L329.73 461.76L332.94 461.89L336.2 461.94L339.53 461.91L342.92 461.81L346.37 461.63L349.88 461.37L353.47 461.03L357.14 460.61L360.87 460.11L364.69 459.53L368.58 458.86L371.2 458.35L373.8 457.77L376.38 457.13L378.94 456.41L381.48 455.63L384 454.78L386.5 453.86L388.99 452.87L391.45 451.81L393.9 450.69L396.33 449.49L398.74 448.23L401.13 446.89L403.5 445.49L405.85 444.02L408.19 442.48L410.5 440.87L412.8 439.2L415.08 437.45L417.34 435.64L419.58 433.75L421.8 431.8L424 429.78L426.19 427.69L428.35 425.53L430.5 423.3L432.63 421.01L434.74 418.64L436.83 416.21L438.9 413.71L440.95 411.14L442.99 408.5L445 405.79L447 403.01L448.98 400.16L450.93 397.25L452.87 394.26L454.8 391.21L456.7 388.09L458.58 384.9L457.03 385.76L455.49 386.61L453.96 387.44L452.44 388.25L450.93 389.04L449.43 389.82L447.95 390.57L446.48 391.31L445.02 392.03L443.57 392.73L442.13 393.41L440.71 394.07L439.29 394.72L437.89 395.35L436.5 395.95L435.12 396.54L433.75 397.12L432.4 397.67L431.05 398.2L429.72 398.72L428.4 399.22L427.09 399.7L425.79 400.16L424.51 400.6L423.23 401.03L421.97 401.43L420.72 401.82L419.48 402.19L418.25 402.54L417.04 402.87L415.83 403.19L414.64 403.48L413.46 403.76L412.29 404.02L411.13 404.26L409.99 404.48L408.85 404.69L407.73 404.87L406.62 405.04L405.52 405.19L403.86 405.4L402.16 405.62L400.43 405.83L398.65 406.04L396.84 406.24L395 406.42L393.12 406.59L391.21 406.74L389.27 406.87L387.3 406.97L385.3 407.03L383.27 407.06L381.21 407.06L379.12 407L377.01 406.91L374.88 406.76L372.72 406.56L370.54 406.3L368.34 405.97L366.12 405.59L363.88 405.13L361.62 404.6L359.34 403.99L357.05 403.3L354.74 402.53L352.42 401.67L350.09 400.72L347.74 399.67L345.38 398.52L343.01 397.27L340.64 395.91L338.25 394.44L335.86 392.86L333.46 391.16L331.06 389.33L328.65 387.38L326.25 385.3L323.83 383.09L321.42 380.74L319.01 378.25L316.66 375.66L314.43 373.02L312.32 370.33L310.32 367.6L308.43 364.83L306.64 362.02L304.95 359.18L303.36 356.3L301.85 353.4L300.44 350.48L299.1 347.53L297.84 344.57L296.66 341.59L295.54 338.6L294.5 335.6L293.51 332.6L292.58 329.59L291.7 326.59L290.86 323.59L290.08 320.6L289.33 317.62L288.62 314.66L287.93 311.71L287.28 308.79L286.65 305.89L286.03 303.02L285.43 300.18L284.84 297.37L284.25 294.6L283.67 291.87L283.08 289.18L282.49 286.55L281.88 283.96L281.26 281.42L280.62 278.95L279.95 276.53L279.25 274.18L278.52 271.89L277.76 269.67L276.95 267.53L276.39 266.13L275.83 264.75L275.25 263.4L274.67 262.06L274.08 260.74L273.48 259.44L272.87 258.16L272.25 256.9L271.63 255.66L270.99 254.43L270.35 253.23L269.7 252.04L269.04 250.88L268.37 249.73L267.69 248.6L267.01 247.49L266.31 246.4L265.61 245.33L264.9 244.28L264.18 243.25L263.45 242.23L262.72 241.24L261.97 240.26L261.22 239.3L260.45 238.37L259.68 237.45L258.9 236.55L258.12 235.67L257.32 234.81L256.52 233.96L255.7 233.14L254.88 232.34L254.05 231.55L253.21 230.78L252.36 230.04L251.51 229.31L250.64 228.6L249.77 227.91L248.89 227.24L248 226.59L247.1 226.08L246.21 225.58L245.32 225.1L244.43 224.64L243.54 224.18L242.65 223.75L241.76 223.32L240.87 222.92L239.99 222.52L239.1 222.14L238.22 221.78L237.33 221.42L236.45 221.09L235.57 220.77L234.69 220.46L233.81 220.16L232.93 219.89L232.05 219.62L231.18 219.37L230.3 219.13L229.43 218.91L228.55 218.71L227.68 218.51L226.81 218.33L225.94 218.17L225.07 218.02L224.2 217.89L223.33 217.77L222.47 217.66L221.6 217.57L220.73 217.49L219.87 217.43L219.01 217.38L218.15 217.34L217.28 217.32L216.42 217.32L215.57 217.33L214.71 217.35L214.71 217.35L213.85 217.39ZM419.58 223.21L416.31 223.4L413.11 223.64L409.97 223.93L406.89 224.26L403.87 224.65L400.91 225.08L398.01 225.56L395.17 226.09L392.39 226.66L389.67 227.29L387.01 227.96L384.41 228.68L381.87 229.45L379.4 230.27L376.98 231.14L374.62 232.05L372.33 233.02L370.09 234.03L367.92 235.09L365.8 236.2L363.75 237.36L361.76 238.56L359.82 239.81L357.95 241.12L355.25 243.15L352.67 245.26L350.21 247.46L347.87 249.72L345.66 252.06L343.57 254.47L341.59 256.93L339.74 259.46L338.01 262.04L336.4 264.67L334.91 267.35L333.53 270.07L332.28 272.83L331.14 275.62L330.13 278.44L329.23 281.29L328.45 284.16L327.79 287.05L327.24 289.96L326.81 292.87L326.5 295.8L326.3 298.72L326.23 301.64L326.26 304.56L326.41 307.47L326.68 310.37L327.06 313.24L327.56 316.1L328.17 318.93L328.9 321.73L329.73 324.5L330.69 327.23L331.75 329.91L332.93 332.56L334.22 335.15L335.62 337.69L337.14 340.17L338.76 342.59L340.5 344.95L342.35 347.24L344.28 349.43L346.27 351.51L348.31 353.48L350.4 355.34L352.54 357.09L354.73 358.73L356.97 360.26L359.25 361.68L361.57 362.99L363.94 364.19L366.34 365.28L368.78 366.26L371.26 367.14L373.77 367.9L376.31 368.56L378.88 369.11L381.48 369.56L384.11 369.89L386.76 370.12L389.44 370.25L392.14 370.26L394.86 370.18L397.59 369.98L400.34 369.69L403.11 369.28L405.89 368.77L408.68 368.16L411.48 367.45L414.28 366.63L417.09 365.71L419.91 364.68L422.73 363.55L425.55 362.32L428.36 360.99L431.18 359.55L433.98 358.02L436.78 356.38L439.58 354.64L442.36 352.8L445.13 350.86L446.95 349.49L448.72 348.03L450.44 346.48L452.11 344.84L453.74 343.12L455.31 341.3L456.84 339.4L458.32 337.41L459.75 335.33L461.13 333.16L462.46 330.9L463.75 328.55L464.98 326.11L466.17 323.59L467.31 320.97L468.4 318.27L469.44 315.48L470.43 312.6L471.38 309.63L472.27 306.57L473.12 303.42L473.92 300.19L474.67 296.86L475.37 293.45L476.02 289.95L476.63 286.36L477.19 282.68L477.69 278.91L478.15 275.05L478.56 271.1L478.93 267.07L479.24 262.95L479.5 258.73L479.72 254.43L479.89 250.04L480.01 245.56L480.08 240.99L480.1 236.34L480.08 231.59L480 226.76L475.77 226.17L471.6 225.64L467.49 225.15L463.44 224.71L459.46 224.32L455.53 223.98L451.66 223.68L447.86 223.44L444.11 223.24L440.42 223.09L436.8 222.99L433.23 222.94L429.73 222.93L426.28 222.98L422.9 223.07L422.9 223.07L419.58 223.21ZM237.91 241.49L239.14 241.87L240.32 242.34L241.46 242.91L242.54 243.56L243.56 244.3L244.52 245.11L245.41 246L246.22 246.96L246.96 247.98L247.61 249.06L248.18 250.2L248.65 251.38L249.03 252.62L249.3 253.89L249.47 255.2L249.53 256.54L249.47 257.88L249.3 259.19L249.03 260.46L248.65 261.69L248.18 262.88L247.61 264.01L246.96 265.1L246.22 266.12L245.41 267.08L244.52 267.96L243.56 268.78L242.54 269.52L241.46 270.17L240.32 270.73L239.14 271.21L237.91 271.58L236.63 271.86L235.32 272.03L233.98 272.08L232.64 272.03L231.33 271.86L230.06 271.58L228.83 271.21L227.64 270.73L226.51 270.17L225.42 269.52L224.4 268.78L223.45 267.96L222.56 267.08L221.74 266.12L221.01 265.1L220.35 264.01L219.79 262.88L219.31 261.69L218.94 260.46L218.66 259.19L218.49 257.88L218.44 256.54L218.49 255.2L218.66 253.89L218.94 252.62L219.31 251.38L219.79 250.2L220.35 249.06L221.01 247.98L221.74 246.96L222.56 246L223.45 245.11L224.4 244.3L225.42 243.56L226.51 242.91L227.64 242.34L228.83 241.87L230.06 241.49L231.33 241.22L232.64 241.05L233.98 240.99L235.32 241.05L236.63 241.22L236.63 241.22L237.91 241.49Z" id="a7U2lIXWp"></path></defs><g visibility="inherit"><g visibility="inherit"><g visibility="inherit"><use xlink:href="#a5mJ2UKuD" opacity="1" fill="#446fa1" fill-opacity="1"></use></g><g visibility="inherit"><use xlink:href="#a7U2lIXWp" opacity="1" fill="#f7f9fb" fill-opacity="1"></use><g><use xlink:href="#a7U2lIXWp" opacity="1" fill-opacity="0" stroke="#ffffff" stroke-width="1" stroke-opacity="1"></use></g></g></g></g></svg>